NotoSansHebrew-Condensed.ufo
<glyph name="segolta-hb" format="2">
  <unicode hex="0592"/>
  <note>
uni0592
</note>
  <anchor x="199" y="536" name="_topleft"/>
  <outline>
    <contour>
      <point x="137" y="759" type="curve" smooth="yes"/>
      <point x="156" y="759"/>
      <point x="169" y="770"/>
      <point x="169" y="793" type="curve" smooth="yes"/>
      <point x="169" y="817"/>
      <point x="156" y="829"/>
      <point x="137" y="829" type="curve" smooth="yes"/>
      <point x="119" y="829"/>
      <point x="106" y="818"/>
      <point x="106" y="793" type="curve" smooth="yes"/>
      <point x="106" y="770"/>
      <point x="119" y="759"/>
    </contour>
    <contour>
      <point x="81" y="660" type="curve" smooth="yes"/>
      <point x="99" y="660"/>
      <point x="112" y="671"/>
      <point x="112" y="694" type="curve" smooth="yes"/>
      <point x="112" y="718"/>
      <point x="99" y="729"/>
      <point x="81" y="729" type="curve" smooth="yes"/>
      <point x="62" y="729"/>
      <point x="50" y="719"/>
      <point x="50" y="694" type="curve" smooth="yes"/>
      <point x="50" y="671"/>
      <point x="62" y="660"/>
    </contour>
    <contour>
      <point x="194" y="660" type="curve" smooth="yes"/>
      <point x="212" y="660"/>
      <point x="225" y="671"/>
      <point x="225" y="694" type="curve" smooth="yes"/>
      <point x="225" y="718"/>
      <point x="212" y="729"/>
      <point x="194" y="729" type="curve" smooth="yes"/>
      <point x="175" y="729"/>
      <point x="163" y="719"/>
      <point x="163" y="694" type="curve" smooth="yes"/>
      <point x="163" y="671"/>
      <point x="175" y="660"/>
    </contour>
  </outline>
</glyph>
<glyph name="shalshelet-hb" format="2">
  <unicode hex="0593"/>
  <note>
uni0593
</note>
  <anchor x="117" y="536" name="_top"/>
  <outline>
    <contour>
      <point x="50" y="659" type="line"/>
      <point x="104" y="659" type="line"/>
      <point x="184" y="698" type="line"/>
      <point x="113" y="737" type="line"/>
      <point x="184" y="776" type="line"/>
      <point x="113" y="815" type="line"/>
      <point x="184" y="853" type="line"/>
      <point x="121" y="853" type="line"/>
      <point x="50" y="815" type="line"/>
      <point x="121" y="776" type="line"/>
      <point x="50" y="737" type="line"/>
      <point x="121" y="698" type="line"/>
    </contour>
  </outline>
</glyph>
<glyph name="zaqefqatan-hb" format="2">
  <unicode hex="0594"/>
  <note>
uni0594
</note>
  <anchor x="81" y="536" name="_top"/>
  <outline>
    <contour>
      <point x="82" y="759" type="curve" smooth="yes"/>
      <point x="100" y="759"/>
      <point x="113" y="770"/>
      <point x="113" y="794" type="curve" smooth="yes"/>
      <point x="113" y="817"/>
      <point x="100" y="829"/>
      <point x="82" y="829" type="curve" smooth="yes"/>
      <point x="63" y="829"/>
      <point x="51" y="817"/>
      <point x="51" y="794" type="curve"/>
      <point x="51" y="769"/>
      <point x="63" y="759"/>
    </contour>
    <contour>
      <point x="81" y="660" type="curve" smooth="yes"/>
      <point x="100" y="660"/>
      <point x="113" y="671"/>
      <point x="113" y="695" type="curve" smooth="yes"/>
      <point x="113" y="718"/>
      <point x="100" y="729"/>
      <point x="81" y="729" type="curve" smooth="yes"/>
      <point x="63" y="729"/>
      <point x="50" y="718"/>
      <point x="50" y="695" type="curve"/>
      <point x="50" y="670"/>
      <point x="63" y="660"/>
    </contour>
  </outline>
</glyph>
<glyph name="zaqefgadol-hb" format="2">
  <unicode hex="0595"/>
  <note>
uni0595
</note>
  <anchor x="123" y="536" name="_top"/>
  <outline>
    <contour>
      <point x="50" y="660" type="line"/>
      <point x="93" y="660" type="line"/>
      <point x="93" y="829" type="line"/>
      <point x="50" y="829" type="line"/>
    </contour>
    <contour>
      <point x="165" y="660" type="curve" smooth="yes"/>
      <point x="183" y="660"/>
      <point x="196" y="671"/>
      <point x="196" y="695" type="curve" smooth="yes"/>
      <point x="196" y="718"/>
      <point x="183" y="729"/>
      <point x="165" y="729" type="curve" smooth="yes"/>
      <point x="146" y="729"/>
      <point x="133" y="718"/>
      <point x="133" y="695" type="curve" smooth="yes"/>
      <point x="133" y="670"/>
      <point x="146" y="660"/>
    </contour>
    <contour>
      <point x="166" y="759" type="curve" smooth="yes"/>
      <point x="184" y="759"/>
      <point x="197" y="770"/>
      <point x="197" y="794" type="curve" smooth="yes"/>
      <point x="197" y="817"/>
      <point x="184" y="829"/>
      <point x="166" y="829" type="curve" smooth="yes"/>
      <point x="147" y="829"/>
      <point x="135" y="817"/>
      <point x="135" y="794" type="curve" smooth="yes"/>
      <point x="135" y="769"/>
      <point x="147" y="759"/>
    </contour>
  </outline>
</glyph>
<glyph name="tipehaleft-hb" format="2">
  <unicode hex="0596"/>
  <note>
uni0596
</note>
  <anchor x="69" y="0" name="_bottomleft"/>
  <outline>
    <contour>
      <point x="188" y="-214" type="curve"/>
      <point x="188" y="-168" type="line"/>
      <point x="131" y="-168"/>
      <point x="96" y="-137"/>
      <point x="96" y="-84" type="curve"/>
      <point x="50" y="-84" type="line"/>
      <point x="50" y="-165"/>
      <point x="100" y="-214"/>
    </contour>
  </outline>
</glyph>
<glyph name="reviamugrash-hb" format="2">
  <unicode hex="0597"/>
  <note>
uni0597
</note>
  <anchor x="150" y="536" name="_topleft"/>
  <outline>
    <contour>
      <point x="115" y="650" type="line"/>
      <point x="180" y="721" type="line"/>
      <point x="115" y="794" type="line"/>
      <point x="50" y="721" type="line"/>
    </contour>
  </outline>
</glyph>
<glyph name="pashta-hb" format="2">
  <unicode hex="0599"/>
  <note>
uni0599
</note>
  <anchor x="189" y="536" name="_topleft"/>
  <outline>
    <contour>
      <point x="143" y="650" type="curve"/>
      <point x="189" y="650" type="line"/>
      <point x="189" y="733"/>
      <point x="137" y="781"/>
      <point x="50" y="781" type="curve"/>
      <point x="50" y="734" type="line"/>
      <point x="109" y="734"/>
      <point x="143" y="703"/>
    </contour>
  </outline>
</glyph>
<glyph name="yetiv-hb" format="2">
  <unicode hex="059A"/>
  <note>
uni059A
</note>
  <anchor x="160" y="0" name="_bottomleft"/>
  <outline>
    <contour>
      <point x="126" y="-238" type="line"/>
      <point x="187" y="-238" type="line"/>
      <point x="111" y="-161" type="line"/>
      <point x="187" y="-84" type="line"/>
      <point x="126" y="-84" type="line"/>
      <point x="50" y="-161" type="line"/>
    </contour>
  </outline>
</glyph>
<glyph name="tevirleft-hb" format="2">
  <unicode hex="059B"/>
  <note>
uni059B
</note>
  <anchor x="187" y="0" name="_bottomleft"/>
  <outline>
    <contour>
      <point x="66" y="-211" type="line"/>
      <point x="156" y="-211"/>
      <point x="206" y="-162"/>
      <point x="206" y="-82" type="curve"/>
      <point x="159" y="-82" type="line"/>
      <point x="159" y="-134"/>
      <point x="123" y="-166"/>
      <point x="66" y="-166" type="curve"/>
    </contour>
    <contour>
      <point x="84" y="-122" type="curve" smooth="yes"/>
      <point x="103" y="-122"/>
      <point x="118" y="-107"/>
      <point x="118" y="-87" type="curve" smooth="yes"/>
      <point x="118" y="-68"/>
      <point x="103" y="-53"/>
      <point x="84" y="-53" type="curve" smooth="yes"/>
      <point x="65" y="-53"/>
      <point x="50" y="-69"/>
      <point x="50" y="-87" type="curve" smooth="yes"/>
      <point x="50" y="-107"/>
      <point x="65" y="-122"/>
    </contour>
  </outline>
</glyph>
<glyph name="gereshmuqdam-hb" format="2">
  <unicode hex="059D"/>
  <note>
uni059D
</note>
  <anchor x="144" y="536" name="_top"/>
  <outline>
    <contour>
      <point x="50" y="650" type="curve"/>
      <point x="96" y="650" type="line"/>
      <point x="96" y="704"/>
      <point x="131" y="734"/>
      <point x="188" y="734" type="curve"/>
      <point x="188" y="781" type="line"/>
      <point x="101" y="781"/>
      <point x="50" y="732"/>
    </contour>
  </outline>
</glyph>
<glyph name="gershayimaccent-hb" format="2">
  <unicode hex="059E"/>
  <note>
uni059E
</note>
  <anchor x="140" y="536" name="_top"/>
  <outline>
    <contour>
      <point x="190" y="650" type="curve"/>
      <point x="237" y="650" type="line"/>
      <point x="237" y="704"/>
      <point x="272" y="734"/>
      <point x="330" y="734" type="curve"/>
      <point x="330" y="781" type="line"/>
      <point x="243" y="781"/>
      <point x="190" y="732"/>
    </contour>
    <contour>
      <point x="50" y="650" type="curve"/>
      <point x="97" y="650" type="line"/>
      <point x="97" y="704"/>
      <point x="133" y="734"/>
      <point x="190" y="734" type="curve"/>
      <point x="190" y="781" type="line"/>
      <point x="101" y="781"/>
      <point x="50" y="731"/>
    </contour>
  </outline>
</glyph>
<glyph name="qarneypara-hb" format="2">
  <unicode hex="059F"/>
  <note>
uni059F
</note>
  <anchor x="260" y="536" name="_top"/>
  <outline>
    <contour>
      <point x="305" y="650" type="line"/>
      <point x="341" y="685" type="line"/>
      <point x="354" y="679"/>
      <point x="367" y="676"/>
      <point x="383" y="676" type="curve" smooth="yes"/>
      <point x="432" y="676"/>
      <point x="470" y="714"/>
      <point x="470" y="762" type="curve" smooth="yes"/>
      <point x="470" y="811"/>
      <point x="431" y="848"/>
      <point x="383" y="848" type="curve" smooth="yes"/>
      <point x="335" y="848"/>
      <point x="296" y="810"/>
      <point x="296" y="762" type="curve" smooth="yes"/>
      <point x="296" y="746"/>
      <point x="301" y="731"/>
      <point x="308" y="719" type="curve"/>
      <point x="272" y="683" type="line"/>
    </contour>
    <contour>
      <point x="215" y="650" type="line"/>
      <point x="248" y="683" type="line"/>
      <point x="212" y="719" type="line"/>
      <point x="219" y="731"/>
      <point x="224" y="746"/>
      <point x="224" y="762" type="curve" smooth="yes"/>
      <point x="224" y="810"/>
      <point x="185" y="848"/>
      <point x="137" y="848" type="curve" smooth="yes"/>
      <point x="89" y="848"/>
      <point x="50" y="810"/>
      <point x="50" y="762" type="curve" smooth="yes"/>
      <point x="50" y="714"/>
      <point x="88" y="676"/>
      <point x="137" y="676" type="curve" smooth="yes"/>
      <point x="153" y="676"/>
      <point x="166" y="679"/>
      <point x="179" y="685" type="curve"/>
    </contour>
    <contour>
      <point x="138" y="719" type="curve" smooth="yes"/>
      <point x="114" y="719"/>
      <point x="93" y="739"/>
      <point x="93" y="762" type="curve" smooth="yes"/>
      <point x="93" y="785"/>
      <point x="115" y="806"/>
      <point x="138" y="806" type="curve" smooth="yes"/>
      <point x="160" y="806"/>
      <point x="180" y="786"/>
      <point x="180" y="762" type="curve" smooth="yes"/>
      <point x="180" y="738"/>
      <point x="161" y="719"/>
    </contour>
    <contour>
      <point x="382" y="719" type="curve" smooth="yes"/>
      <point x="359" y="719"/>
      <point x="340" y="738"/>
      <point x="340" y="762" type="curve" smooth="yes"/>
      <point x="340" y="786"/>
      <point x="360" y="806"/>
      <point x="382" y="806" type="curve" smooth="yes"/>
      <point x="405" y="806"/>
      <point x="427" y="785"/>
      <point x="427" y="762" type="curve" smooth="yes"/>
      <point x="427" y="739"/>
      <point x="406" y="719"/>
    </contour>
  </outline>
</glyph>
<glyph name="telishagedola-hb" format="2">
  <unicode hex="05A0"/>
  <note>
uni05A0
</note>
  <anchor x="149" y="536" name="_top"/>
  <outline>
    <contour>
      <point x="83" y="650" type="line"/>
      <point x="118" y="685" type="line"/>
      <point x="131" y="679"/>
      <point x="145" y="676"/>
      <point x="161" y="676" type="curve" smooth="yes"/>
      <point x="210" y="676"/>
      <point x="248" y="714"/>
      <point x="248" y="762" type="curve" smooth="yes"/>
      <point x="248" y="811"/>
      <point x="209" y="848"/>
      <point x="161" y="848" type="curve" smooth="yes"/>
      <point x="113" y="848"/>
      <point x="74" y="810"/>
      <point x="74" y="762" type="curve" smooth="yes"/>
      <point x="74" y="746"/>
      <point x="79" y="731"/>
      <point x="86" y="719" type="curve"/>
      <point x="50" y="683" type="line"/>
    </contour>
    <contour>
      <point x="160" y="719" type="curve" smooth="yes"/>
      <point x="137" y="719"/>
      <point x="118" y="738"/>
      <point x="118" y="762" type="curve" smooth="yes"/>
      <point x="118" y="786"/>
      <point x="138" y="806"/>
      <point x="160" y="806" type="curve" smooth="yes"/>
      <point x="183" y="806"/>
      <point x="205" y="785"/>
      <point x="205" y="762" type="curve" smooth="yes"/>
      <point x="205" y="739"/>
      <point x="184" y="719"/>
    </contour>
  </outline>
</glyph>
<glyph name="pazer-hb" format="2">
  <unicode hex="05A1"/>
  <note>
uni05A1
</note>
  <anchor x="120" y="536" name="_top"/>
  <outline>
    <contour>
      <point x="50" y="650" type="line"/>
      <point x="92" y="650" type="line"/>
      <point x="92" y="694" type="line"/>
      <point x="99" y="690"/>
      <point x="107" y="689"/>
      <point x="116" y="689" type="curve" smooth="yes"/>
      <point x="166" y="689"/>
      <point x="190" y="720"/>
      <point x="190" y="770" type="curve" smooth="yes"/>
      <point x="190" y="792" type="line"/>
      <point x="147" y="792" type="line"/>
      <point x="147" y="770" type="line" smooth="yes"/>
      <point x="147" y="739"/>
      <point x="138" y="728"/>
      <point x="111" y="728" type="curve" smooth="yes"/>
      <point x="101" y="728"/>
      <point x="96" y="730"/>
      <point x="92" y="733" type="curve"/>
      <point x="92" y="792" type="line"/>
      <point x="50" y="792" type="line"/>
    </contour>
  </outline>
</glyph>
<glyph name="munahleft-hb" format="2">
  <unicode hex="05A3"/>
  <note>
uni05A3
</note>
  <anchor x="194" y="0" name="_bottomleft"/>
  <outline>
    <contour>
      <point x="50" y="-217" type="line"/>
      <point x="188" y="-217" type="line"/>
      <point x="188" y="-84" type="line"/>
      <point x="142" y="-84" type="line"/>
      <point x="142" y="-172" type="line"/>
      <point x="50" y="-172" type="line"/>
    </contour>
  </outline>
</glyph>
<glyph name="mahapakhleft-hb" format="2">
  <unicode hex="05A4"/>
  <note>
uni05A4
</note>
  <anchor x="161" y="0" name="_bottomleft"/>
  <outline>
    <contour>
      <point x="126" y="-238" type="line"/>
      <point x="188" y="-238" type="line"/>
      <point x="112" y="-161" type="line"/>
      <point x="188" y="-84" type="line"/>
      <point x="126" y="-84" type="line"/>
      <point x="50" y="-161" type="line"/>
    </contour>
  </outline>
</glyph>
<glyph name="merkhaleft-hb" format="2">
  <unicode hex="05A5"/>
  <note>
uni05A5
</note>
  <anchor x="194" y="0" name="_bottomleft"/>
  <outline>
    <contour>
      <point x="50" y="-214" type="line"/>
      <point x="138" y="-214"/>
      <point x="188" y="-165"/>
      <point x="188" y="-84" type="curve"/>
      <point x="142" y="-84" type="line"/>
      <point x="142" y="-136"/>
      <point x="107" y="-168"/>
      <point x="50" y="-168" type="curve"/>
    </contour>
  </outline>
</glyph>
<glyph name="merkhakefulaleft-hb" format="2">
  <unicode hex="05A6"/>
  <note>
uni05A6
</note>
  <anchor x="240" y="0" name="_bottomleft"/>
  <outline>
    <contour>
      <point x="190" y="-214" type="line"/>
      <point x="280" y="-214"/>
      <point x="330" y="-165"/>
      <point x="330" y="-84" type="curve"/>
      <point x="283" y="-84" type="line"/>
      <point x="283" y="-136"/>
      <point x="248" y="-168"/>
      <point x="190" y="-168" type="curve"/>
    </contour>
    <contour>
      <point x="50" y="-214" type="line"/>
      <point x="139" y="-214"/>
      <point x="190" y="-165"/>
      <point x="190" y="-84" type="curve"/>
      <point x="143" y="-84" type="line"/>
      <point x="143" y="-136"/>
      <point x="109" y="-168"/>
      <point x="50" y="-168" type="curve"/>
    </contour>
  </outline>
</glyph>
<glyph name="dargaleft-hb" format="2">
  <unicode hex="05A7"/>
  <note>
uni05A7
</note>
  <anchor x="177" y="0" name="_bottomleft"/>
  <outline>
    <contour>
      <point x="63" y="-227" type="line"/>
      <point x="185" y="-205" type="line"/>
      <point x="111" y="-110" type="line"/>
      <point x="173" y="-98" type="line"/>
      <point x="173" y="-66" type="line"/>
      <point x="50" y="-88" type="line"/>
      <point x="124" y="-184" type="line"/>
      <point x="63" y="-193" type="line"/>
    </contour>
  </outline>
</glyph>
<glyph name="qadma-hb" format="2">
  <unicode hex="05A8"/>
  <note>
uni05A8
</note>
  <anchor x="169" y="536" name="_topleft"/>
  <outline>
    <contour>
      <point x="142" y="650" type="curve"/>
      <point x="188" y="650" type="line"/>
      <point x="188" y="733"/>
      <point x="137" y="781"/>
      <point x="50" y="781" type="curve"/>
      <point x="50" y="734" type="line"/>
      <point x="109" y="734"/>
      <point x="142" y="703"/>
    </contour>
  </outline>
</glyph>
<glyph name="telishaqetana-hb" format="2">
  <unicode hex="05A9"/>
  <note>
uni05A9
</note>
  <anchor x="136" y="536" name="_topleft"/>
  <outline>
    <contour>
      <point x="215" y="650" type="line"/>
      <point x="248" y="683" type="line"/>
      <point x="212" y="719" type="line"/>
      <point x="219" y="731"/>
      <point x="224" y="746"/>
      <point x="224" y="762" type="curve" smooth="yes"/>
      <point x="224" y="810"/>
      <point x="185" y="848"/>
      <point x="137" y="848" type="curve" smooth="yes"/>
      <point x="89" y="848"/>
      <point x="50" y="810"/>
      <point x="50" y="762" type="curve" smooth="yes"/>
      <point x="50" y="714"/>
      <point x="88" y="676"/>
      <point x="137" y="676" type="curve" smooth="yes"/>
      <point x="153" y="676"/>
      <point x="167" y="679"/>
      <point x="180" y="685" type="curve"/>
    </contour>
    <contour>
      <point x="138" y="719" type="curve" smooth="yes"/>
      <point x="114" y="719"/>
      <point x="93" y="739"/>
      <point x="93" y="762" type="curve" smooth="yes"/>
      <point x="93" y="785"/>
      <point x="115" y="806"/>
      <point x="138" y="806" type="curve" smooth="yes"/>
      <point x="160" y="806"/>
      <point x="180" y="786"/>
      <point x="180" y="762" type="curve" smooth="yes"/>
      <point x="180" y="738"/>
      <point x="161" y="719"/>
    </contour>
  </outline>
</glyph>
<glyph name="yerahbenyomoleft-hb" format="2">
  <unicode hex="05AA"/>
  <note>
uni05AA
</note>
  <anchor x="132" y="0" name="_bottomleft"/>
  <outline>
    <contour>
      <point x="109" y="-226" type="line"/>
      <point x="153" y="-226" type="line"/>
      <point x="153" y="-187" type="line"/>
      <point x="192" y="-180"/>
      <point x="213" y="-156"/>
      <point x="213" y="-105" type="curve" smooth="yes"/>
      <point x="213" y="-84" type="line"/>
      <point x="169" y="-84" type="line"/>
      <point x="169" y="-105" type="line" smooth="yes"/>
      <point x="169" y="-135"/>
      <point x="159" y="-148"/>
      <point x="132" y="-148" type="curve" smooth="yes"/>
      <point x="103" y="-148"/>
      <point x="93" y="-135"/>
      <point x="93" y="-105" type="curve" smooth="yes"/>
      <point x="93" y="-84" type="line"/>
      <point x="50" y="-84" type="line"/>
      <point x="50" y="-105" type="line" smooth="yes"/>
      <point x="50" y="-156"/>
      <point x="72" y="-181"/>
      <point x="109" y="-187" type="curve"/>
    </contour>
  </outline>
</glyph>
<glyph name="ole-hb" format="2">
  <unicode hex="05AB"/>
  <note>
uni05AB
</note>
  <anchor x="119" y="536" name="_top"/>
  <outline>
    <contour>
      <point x="126" y="650" type="line"/>
      <point x="188" y="650" type="line"/>
      <point x="112" y="727" type="line"/>
      <point x="188" y="804" type="line"/>
      <point x="126" y="804" type="line"/>
      <point x="50" y="727" type="line"/>
    </contour>
  </outline>
</glyph>
<glyph name="iluy-hb" format="2">
  <unicode hex="05AC"/>
  <note>
uni05AC
</note>
  <anchor x="119" y="536" name="_top"/>
  <outline>
    <contour>
      <point x="50" y="650" type="line"/>
      <point x="188" y="650" type="line"/>
      <point x="188" y="783" type="line"/>
      <point x="142" y="783" type="line"/>
      <point x="142" y="695" type="line"/>
      <point x="50" y="695" type="line"/>
    </contour>
  </outline>
</glyph>
<glyph name="dehi-hb" format="2">
  <unicode hex="05AD"/>
  <note>
uni05AD
</note>
  <anchor x="69" y="0" name="_bottomleft"/>
  <outline>
    <contour>
      <point x="188" y="-230" type="curve"/>
      <point x="188" y="-184" type="line"/>
      <point x="131" y="-184"/>
      <point x="96" y="-153"/>
      <point x="96" y="-100" type="curve"/>
      <point x="50" y="-100" type="line"/>
      <point x="50" y="-181"/>
      <point x="100" y="-230"/>
    </contour>
  </outline>
</glyph>
<glyph name="zinor-hb" format="2">
  <unicode hex="05AE"/>
  <note>
uni05AE
</note>
  <anchor x="178" y="536" name="_top"/>
  <outline>
    <contour>
      <point x="97" y="650" type="curve"/>
      <point x="109" y="681" type="line"/>
      <point x="92" y="688"/>
      <point x="84" y="699"/>
      <point x="84" y="718" type="curve" smooth="yes"/>
      <point x="84" y="738"/>
      <point x="96" y="750"/>
      <point x="111" y="750" type="curve" smooth="yes"/>
      <point x="131" y="750"/>
      <point x="140" y="741"/>
      <point x="166" y="705" type="curve" smooth="yes"/>
      <point x="196" y="664"/>
      <point x="216" y="651"/>
      <point x="245" y="651" type="curve" smooth="yes"/>
      <point x="280" y="651"/>
      <point x="306" y="676"/>
      <point x="306" y="714" type="curve" smooth="yes"/>
      <point x="306" y="747"/>
      <point x="290" y="769"/>
      <point x="259" y="781" type="curve"/>
      <point x="247" y="750" type="line"/>
      <point x="264" y="744"/>
      <point x="272" y="732"/>
      <point x="272" y="714" type="curve" smooth="yes"/>
      <point x="272" y="693"/>
      <point x="260" y="681"/>
      <point x="245" y="681" type="curve" smooth="yes"/>
      <point x="226" y="681"/>
      <point x="213" y="694"/>
      <point x="190" y="726" type="curve" smooth="yes"/>
      <point x="159" y="768"/>
      <point x="140" y="781"/>
      <point x="113" y="781" type="curve" smooth="yes"/>
      <point x="76" y="781"/>
      <point x="50" y="755"/>
      <point x="50" y="718" type="curve" smooth="yes"/>
      <point x="50" y="683"/>
      <point x="66" y="660"/>
    </contour>
  </outline>
</glyph>
<glyph name="masoracircle-hb" format="2">
  <unicode hex="05AF"/>
  <note>
uni05AF
</note>
  <anchor x="135" y="536" name="_top"/>
  <outline>
    <contour>
      <point x="135" y="650" type="curve" smooth="yes"/>
      <point x="183" y="650"/>
      <point x="220" y="688"/>
      <point x="220" y="735" type="curve" smooth="yes"/>
      <point x="220" y="782"/>
      <point x="182" y="820"/>
      <point x="135" y="820" type="curve" smooth="yes"/>
      <point x="88" y="820"/>
      <point x="50" y="782"/>
      <point x="50" y="735" type="curve" smooth="yes"/>
      <point x="50" y="688"/>
      <point x="87" y="650"/>
    </contour>
    <contour>
      <point x="135" y="690" type="curve" smooth="yes"/>
      <point x="110" y="690"/>
      <point x="90" y="710"/>
      <point x="90" y="735" type="curve" smooth="yes"/>
      <point x="90" y="760"/>
      <point x="111" y="781"/>
      <point x="135" y="781" type="curve" smooth="yes"/>
      <point x="159" y="781"/>
      <point x="180" y="760"/>
      <point x="180" y="735" type="curve" smooth="yes"/>
      <point x="180" y="710"/>
      <point x="160" y="690"/>
    </contour>
  </outline>
</glyph>
<glyph name="sheva-hb" format="2">
  <unicode hex="05B0"/>
  <note>
sheva
</note>
  <anchor x="83" y="0" name="_bottom"/>
  <outline>
    <contour>
      <point x="82" y="-139" type="curve" smooth="yes"/>
      <point x="100" y="-139"/>
      <point x="113" y="-128"/>
      <point x="113" y="-104" type="curve" smooth="yes"/>
      <point x="113" y="-81"/>
      <point x="100" y="-70"/>
      <point x="82" y="-70" type="curve" smooth="yes"/>
      <point x="63" y="-70"/>
      <point x="51" y="-81"/>
      <point x="51" y="-104" type="curve"/>
      <point x="51" y="-129"/>
      <point x="63" y="-139"/>
    </contour>
    <contour>
      <point x="81" y="-239" type="curve" smooth="yes"/>
      <point x="100" y="-239"/>
      <point x="113" y="-227"/>
      <point x="113" y="-203" type="curve" smooth="yes"/>
      <point x="113" y="-180"/>
      <point x="100" y="-169"/>
      <point x="81" y="-169" type="curve" smooth="yes"/>
      <point x="63" y="-169"/>
      <point x="50" y="-180"/>
      <point x="50" y="-203" type="curve"/>
      <point x="50" y="-228"/>
      <point x="63" y="-239"/>
    </contour>
  </outline>
</glyph>
<glyph name="hatafsegol-hb" format="2">
  <unicode hex="05B1"/>
  <note>
hatafsegol
</note>
  <anchor x="182" y="0" name="_bottom"/>
  <outline>
    <contour>
      <point x="284" y="-239" type="curve" smooth="yes"/>
      <point x="302" y="-239"/>
      <point x="315" y="-227"/>
      <point x="315" y="-203" type="curve" smooth="yes"/>
      <point x="315" y="-180"/>
      <point x="302" y="-169"/>
      <point x="284" y="-169" type="curve" smooth="yes"/>
      <point x="265" y="-169"/>
      <point x="252" y="-180"/>
      <point x="252" y="-203" type="curve"/>
      <point x="252" y="-228"/>
      <point x="265" y="-239"/>
    </contour>
    <contour>
      <point x="137" y="-239" type="curve" smooth="yes"/>
      <point x="155" y="-239"/>
      <point x="168" y="-227"/>
      <point x="168" y="-203" type="curve" smooth="yes"/>
      <point x="168" y="-180"/>
      <point x="155" y="-169"/>
      <point x="137" y="-169" type="curve" smooth="yes"/>
      <point x="118" y="-169"/>
      <point x="105" y="-180"/>
      <point x="105" y="-203" type="curve"/>
      <point x="105" y="-228"/>
      <point x="118" y="-239"/>
    </contour>
    <contour>
      <point x="80" y="-139" type="curve" smooth="yes"/>
      <point x="99" y="-139"/>
      <point x="112" y="-128"/>
      <point x="112" y="-104" type="curve" smooth="yes"/>
      <point x="112" y="-81"/>
      <point x="99" y="-70"/>
      <point x="80" y="-70" type="curve" smooth="yes"/>
      <point x="62" y="-70"/>
      <point x="50" y="-81"/>
      <point x="50" y="-104" type="curve"/>
      <point x="50" y="-129"/>
      <point x="62" y="-139"/>
    </contour>
    <contour>
      <point x="193" y="-139" type="curve" smooth="yes"/>
      <point x="212" y="-139"/>
      <point x="225" y="-128"/>
      <point x="225" y="-104" type="curve" smooth="yes"/>
      <point x="225" y="-81"/>
      <point x="212" y="-70"/>
      <point x="193" y="-70" type="curve" smooth="yes"/>
      <point x="175" y="-70"/>
      <point x="163" y="-81"/>
      <point x="163" y="-104" type="curve"/>
      <point x="163" y="-129"/>
      <point x="175" y="-139"/>
    </contour>
    <contour>
      <point x="283" y="-139" type="curve" smooth="yes"/>
      <point x="301" y="-139"/>
      <point x="314" y="-128"/>
      <point x="314" y="-104" type="curve" smooth="yes"/>
      <point x="314" y="-81"/>
      <point x="301" y="-70"/>
      <point x="283" y="-70" type="curve" smooth="yes"/>
      <point x="264" y="-70"/>
      <point x="252" y="-81"/>
      <point x="252" y="-104" type="curve"/>
      <point x="252" y="-129"/>
      <point x="264" y="-139"/>
    </contour>
  </outline>
</glyph>
<glyph name="hatafqamats-hb" format="2">
  <unicode hex="05B3"/>
  <note>
hatafqamats
</note>
  <anchor x="179" y="0" name="_bottom"/>
  <outline>
    <contour>
      <point x="111" y="-226" type="line"/>
      <point x="155" y="-226" type="line"/>
      <point x="155" y="-126" type="line"/>
      <point x="215" y="-126" type="line"/>
      <point x="215" y="-83" type="line"/>
      <point x="50" y="-83" type="line"/>
      <point x="50" y="-126" type="line"/>
      <point x="111" y="-126" type="line"/>
    </contour>
    <contour>
      <point x="275" y="-239" type="curve" smooth="yes"/>
      <point x="294" y="-239"/>
      <point x="307" y="-227"/>
      <point x="307" y="-203" type="curve" smooth="yes"/>
      <point x="307" y="-180"/>
      <point x="294" y="-169"/>
      <point x="275" y="-169" type="curve" smooth="yes"/>
      <point x="257" y="-169"/>
      <point x="244" y="-180"/>
      <point x="244" y="-203" type="curve" smooth="yes"/>
      <point x="244" y="-228"/>
      <point x="257" y="-239"/>
    </contour>
    <contour>
      <point x="276" y="-139" type="curve" smooth="yes"/>
      <point x="295" y="-139"/>
      <point x="308" y="-128"/>
      <point x="308" y="-104" type="curve" smooth="yes"/>
      <point x="308" y="-81"/>
      <point x="295" y="-70"/>
      <point x="276" y="-70" type="curve" smooth="yes"/>
      <point x="258" y="-70"/>
      <point x="246" y="-81"/>
      <point x="246" y="-104" type="curve" smooth="yes"/>
      <point x="246" y="-129"/>
      <point x="258" y="-139"/>
    </contour>
  </outline>
</glyph>
<glyph name="tsere-hb" format="2">
  <unicode hex="05B5"/>
  <note>
tsere
</note>
  <anchor x="138" y="0" name="_bottom"/>
  <outline>
    <contour>
      <point x="194" y="-139" type="curve" smooth="yes"/>
      <point x="212" y="-139"/>
      <point x="225" y="-128"/>
      <point x="225" y="-104" type="curve" smooth="yes"/>
      <point x="225" y="-81"/>
      <point x="212" y="-70"/>
      <point x="194" y="-70" type="curve" smooth="yes"/>
      <point x="175" y="-70"/>
      <point x="163" y="-81"/>
      <point x="163" y="-104" type="curve"/>
      <point x="163" y="-129"/>
      <point x="175" y="-139"/>
    </contour>
    <contour>
      <point x="81" y="-139" type="curve" smooth="yes"/>
      <point x="99" y="-139"/>
      <point x="112" y="-128"/>
      <point x="112" y="-104" type="curve" smooth="yes"/>
      <point x="112" y="-81"/>
      <point x="99" y="-70"/>
      <point x="81" y="-70" type="curve" smooth="yes"/>
      <point x="62" y="-70"/>
      <point x="50" y="-81"/>
      <point x="50" y="-104" type="curve"/>
      <point x="50" y="-129"/>
      <point x="62" y="-139"/>
    </contour>
  </outline>
</glyph>
<glyph name="segol-hb" format="2">
  <unicode hex="05B6"/>
  <note>
segol
</note>
  <anchor x="138" y="0" name="_bottom"/>
  <outline>
    <contour>
      <point x="194" y="-139" type="curve" smooth="yes"/>
      <point x="212" y="-139"/>
      <point x="225" y="-128"/>
      <point x="225" y="-104" type="curve" smooth="yes"/>
      <point x="225" y="-81"/>
      <point x="212" y="-70"/>
      <point x="194" y="-70" type="curve" smooth="yes"/>
      <point x="175" y="-70"/>
      <point x="163" y="-81"/>
      <point x="163" y="-104" type="curve"/>
      <point x="163" y="-129"/>
      <point x="175" y="-139"/>
    </contour>
    <contour>
      <point x="137" y="-239" type="curve" smooth="yes"/>
      <point x="156" y="-239"/>
      <point x="169" y="-227"/>
      <point x="169" y="-203" type="curve" smooth="yes"/>
      <point x="169" y="-180"/>
      <point x="156" y="-169"/>
      <point x="137" y="-169" type="curve" smooth="yes"/>
      <point x="119" y="-169"/>
      <point x="106" y="-180"/>
      <point x="106" y="-203" type="curve"/>
      <point x="106" y="-228"/>
      <point x="119" y="-239"/>
    </contour>
    <contour>
      <point x="81" y="-139" type="curve" smooth="yes"/>
      <point x="99" y="-139"/>
      <point x="112" y="-128"/>
      <point x="112" y="-104" type="curve" smooth="yes"/>
      <point x="112" y="-81"/>
      <point x="99" y="-70"/>
      <point x="81" y="-70" type="curve" smooth="yes"/>
      <point x="62" y="-70"/>
      <point x="50" y="-81"/>
      <point x="50" y="-104" type="curve"/>
      <point x="50" y="-129"/>
      <point x="62" y="-139"/>
    </contour>
  </outline>
</glyph>
<glyph name="patah-hb" format="2">
  <unicode hex="05B7"/>
  <note>
patah
</note>
  <anchor x="132" y="0" name="_bottom"/>
  <outline>
    <contour>
      <point x="50" y="-128" type="line"/>
      <point x="214" y="-128" type="line"/>
      <point x="214" y="-84" type="line"/>
      <point x="50" y="-84" type="line"/>
    </contour>
  </outline>
</glyph>
<glyph name="qubuts-hb" format="2">
  <unicode hex="05BB"/>
  <note>
qubuts
</note>
  <anchor x="157" y="0" name="_bottom"/>
  <outline>
    <contour>
      <point x="231" y="-239" type="curve" smooth="yes"/>
      <point x="250" y="-239"/>
      <point x="263" y="-227"/>
      <point x="263" y="-203" type="curve" smooth="yes"/>
      <point x="263" y="-180"/>
      <point x="250" y="-169"/>
      <point x="231" y="-169" type="curve" smooth="yes"/>
      <point x="213" y="-169"/>
      <point x="200" y="-180"/>
      <point x="200" y="-203" type="curve"/>
      <point x="200" y="-228"/>
      <point x="213" y="-239"/>
    </contour>
    <contour>
      <point x="81" y="-139" type="curve" smooth="yes"/>
      <point x="100" y="-139"/>
      <point x="113" y="-128"/>
      <point x="113" y="-104" type="curve" smooth="yes"/>
      <point x="113" y="-81"/>
      <point x="100" y="-70"/>
      <point x="81" y="-70" type="curve" smooth="yes"/>
      <point x="63" y="-70"/>
      <point x="50" y="-81"/>
      <point x="50" y="-104" type="curve"/>
      <point x="50" y="-129"/>
      <point x="63" y="-139"/>
    </contour>
    <contour>
      <point x="156" y="-189" type="curve" smooth="yes"/>
      <point x="175" y="-189"/>
      <point x="188" y="-178"/>
      <point x="188" y="-154" type="curve" smooth="yes"/>
      <point x="188" y="-131"/>
      <point x="175" y="-120"/>
      <point x="156" y="-120" type="curve" smooth="yes"/>
      <point x="138" y="-120"/>
      <point x="125" y="-131"/>
      <point x="125" y="-154" type="curve"/>
      <point x="125" y="-179"/>
      <point x="138" y="-189"/>
    </contour>
  </outline>
</glyph>
<glyph name="dagesh-hb" format="2">
  <unicode hex="05BC"/>
  <note>
dagesh
</note>
  <anchor x="82" y="300" name="_center"/>
  <outline>
    <contour>
      <point x="50" y="300" type="curve"/>
      <point x="50" y="275"/>
      <point x="63" y="265"/>
      <point x="81" y="265" type="curve" smooth="yes"/>
      <point x="100" y="265"/>
      <point x="113" y="276"/>
      <point x="113" y="300" type="curve" smooth="yes"/>
      <point x="113" y="323"/>
      <point x="100" y="334"/>
      <point x="81" y="334" type="curve" smooth="yes"/>
      <point x="63" y="334"/>
      <point x="50" y="323"/>
    </contour>
  </outline>
</glyph>
<glyph name="siluqleft-hb" format="2">
  <unicode hex="05BD"/>
  <note>
meteg
</note>
  <anchor x="72" y="0" name="_bottomleft"/>
  <outline>
    <contour>
      <point x="50" y="-239" type="line"/>
      <point x="93" y="-239" type="line"/>
      <point x="93" y="-70" type="line"/>
      <point x="50" y="-70" type="line"/>
    </contour>
  </outline>
</glyph>
<glyph name="paseq-hb" format="2">
  <advance width="403"/>
  <unicode hex="05C0"/>
  <note>
paseq
</note>
  <outline>
    <contour>
      <point x="165" y="760" type="line"/>
      <point x="165" y="-241" type="line"/>
      <point x="238" y="-241" type="line"/>
      <point x="238" y="760" type="line"/>
    </contour>
  </outline>
</glyph>
<glyph name="shindot-hb" format="2">
  <unicode hex="05C1"/>
  <note>
shindot
</note>
  <anchor x="82" y="536" name="_topright"/>
  <outline>
    <contour>
      <point x="81" y="660" type="curve" smooth="yes"/>
      <point x="100" y="660"/>
      <point x="113" y="671"/>
      <point x="113" y="695" type="curve" smooth="yes"/>
      <point x="113" y="718"/>
      <point x="100" y="729"/>
      <point x="81" y="729" type="curve" smooth="yes"/>
      <point x="63" y="729"/>
      <point x="50" y="718"/>
      <point x="50" y="695" type="curve"/>
      <point x="50" y="670"/>
      <point x="63" y="660"/>
    </contour>
  </outline>
</glyph>
<glyph name="lowerdot-hb" format="2">
  <unicode hex="05C5"/>
  <note>
lowerdot
</note>
  <anchor x="82" y="0" name="_bottom"/>
  <outline>
    <contour>
      <point x="81" y="-139" type="curve" smooth="yes"/>
      <point x="100" y="-139"/>
      <point x="113" y="-128"/>
      <point x="113" y="-104" type="curve" smooth="yes"/>
      <point x="113" y="-81"/>
      <point x="100" y="-70"/>
      <point x="81" y="-70" type="curve" smooth="yes"/>
      <point x="63" y="-70"/>
      <point x="50" y="-81"/>
      <point x="50" y="-104" type="curve"/>
      <point x="50" y="-129"/>
      <point x="63" y="-139"/>
    </contour>
  </outline>
</glyph>
<glyph name="nunhafukha-hb" format="2">
  <advance width="248"/>
  <unicode hex="05C6"/>
  <note>
uni05C6
</note>
  <outline>
    <contour>
      <point x="30" y="0" type="line"/>
      <point x="228" y="0" type="line"/>
      <point x="228" y="81" type="line"/>
      <point x="114" y="81" type="line"/>
      <point x="114" y="430" type="line" smooth="yes"/>
      <point x="114" y="484"/>
      <point x="124" y="511"/>
      <point x="163" y="511" type="curve" smooth="yes"/>
      <point x="188" y="511" type="line"/>
      <point x="188" y="592" type="line"/>
      <point x="133" y="592" type="line" smooth="yes"/>
      <point x="62" y="592"/>
      <point x="30" y="545"/>
      <point x="30" y="449" type="curve" smooth="yes"/>
    </contour>
  </outline>
</glyph>
<glyph name="qamatsqatan-hb" format="2">
  <unicode hex="05C7"/>
  <note>
qamatsqatan
</note>
  <anchor x="114" y="0" name="_bottom"/>
  <outline>
    <contour>
      <point x="93" y="-186" type="line"/>
      <point x="136" y="-186" type="line"/>
      <point x="136" y="-128" type="line"/>
      <point x="178" y="-128" type="line"/>
      <point x="178" y="-84" type="line"/>
      <point x="50" y="-84" type="line"/>
      <point x="50" y="-128" type="line"/>
      <point x="93" y="-128" type="line"/>
    </contour>
  </outline>
</glyph>
<glyph name="alef-hb" format="2">
  <advance width="411"/>
  <unicode hex="05D0"/>
  <anchor x="206" y="0" name="bottom"/>
  <anchor x="13" y="0" name="bottomleft"/>
  <anchor x="183" y="88" name="center"/>
  <anchor x="206" y="536" name="top"/>
  <anchor x="30" y="536" name="topleft"/>
  <outline>
    <contour>
      <point x="292" y="0" type="line"/>
      <point x="381" y="0" type="line"/>
      <point x="271" y="248" type="line"/>
      <point x="119" y="592" type="line"/>
      <point x="30" y="592" type="line"/>
      <point x="136" y="353" type="line"/>
    </contour>
    <contour>
      <point x="36" y="0" type="line"/>
      <point x="120" y="0" type="line"/>
      <point x="120" y="164" type="line" smooth="yes"/>
      <point x="120" y="269"/>
      <point x="152" y="331"/>
      <point x="220" y="356" type="curve"/>
      <point x="191" y="421" type="line"/>
      <point x="86" y="386"/>
      <point x="36" y="297"/>
      <point x="36" y="158" type="curve" smooth="yes"/>
    </contour>
    <contour>
      <point x="225" y="186" type="line"/>
      <point x="326" y="222"/>
      <point x="377" y="310"/>
      <point x="377" y="446" type="curve" smooth="yes"/>
      <point x="377" y="592" type="line"/>
      <point x="293" y="592" type="line"/>
      <point x="293" y="440" type="line" smooth="yes"/>
      <point x="293" y="337"/>
      <point x="262" y="275"/>
      <point x="196" y="250" type="curve"/>
    </contour>
  </outline>
</glyph>
<glyph name="bet-hb" format="2">
  <advance width="367"/>
  <unicode hex="05D1"/>
  <anchor x="196" y="0" name="bottom"/>
  <anchor x="17" y="0" name="bottomleft"/>
  <anchor x="114" y="300" name="center"/>
  <anchor x="151" y="536" name="top"/>
  <anchor x="20" y="536" name="topleft"/>
  <outline>
    <contour>
      <point x="208" y="0" type="line"/>
      <point x="292" y="0" type="line"/>
      <point x="292" y="404" type="line" smooth="yes"/>
      <point x="292" y="534"/>
      <point x="236" y="592"/>
      <point x="145" y="592" type="curve" smooth="yes"/>
      <point x="20" y="592" type="line"/>
      <point x="20" y="511" type="line"/>
      <point x="122" y="511" type="line" smooth="yes"/>
      <point x="172" y="511"/>
      <point x="208" y="483"/>
      <point x="208" y="386" type="curve" smooth="yes"/>
    </contour>
    <contour>
      <point x="20" y="0" type="line"/>
      <point x="362" y="0" type="line"/>
      <point x="362" y="81" type="line"/>
      <point x="20" y="81" type="line"/>
    </contour>
  </outline>
</glyph>
<glyph name="gimel-hb" format="2">
  <advance width="277"/>
  <unicode hex="05D2"/>
  <anchor x="124" y="0" name="bottom"/>
  <anchor x="10" y="0" name="bottomleft"/>
  <anchor x="58" y="342" name="center"/>
  <anchor x="138" y="536" name="top"/>
  <anchor x="59" y="536" name="topleft"/>
  <outline>
    <contour>
      <point x="10" y="-10" type="line"/>
      <point x="59" y="13"/>
      <point x="114" y="72"/>
      <point x="139" y="144" type="curve"/>
      <point x="141" y="144" type="line"/>
      <point x="169" y="0" type="line"/>
      <point x="237" y="0" type="line"/>
      <point x="216" y="183" type="line"/>
      <point x="216" y="449" type="line" smooth="yes"/>
      <point x="216" y="545"/>
      <point x="185" y="592"/>
      <point x="114" y="592" type="curve" smooth="yes"/>
      <point x="59" y="592" type="line"/>
      <point x="59" y="511" type="line"/>
      <point x="84" y="511" type="line" smooth="yes"/>
      <point x="123" y="511"/>
      <point x="133" y="484"/>
      <point x="133" y="430" type="curve" smooth="yes"/>
      <point x="133" y="342" type="line" smooth="yes"/>
      <point x="133" y="275"/>
      <point x="125" y="219"/>
      <point x="94" y="170" type="curve" smooth="yes"/>
      <point x="75" y="140"/>
      <point x="48" y="112"/>
      <point x="10" y="86" type="curve"/>
    </contour>
  </outline>
</glyph>
<glyph name="dalet-hb" format="2">
  <advance width="362"/>
  <unicode hex="05D3"/>
  <anchor x="239" y="0" name="bottom"/>
  <anchor x="46" y="0" name="bottomleft"/>
  <anchor x="104" y="300" name="center"/>
  <anchor x="181" y="536" name="top"/>
  <anchor x="11" y="536" name="topleft"/>
  <outline>
    <contour>
      <point x="197" y="0" type="line"/>
      <point x="281" y="0" type="line"/>
      <point x="281" y="542" type="line"/>
      <point x="197" y="542" type="line"/>
    </contour>
    <contour>
      <point x="10" y="511" type="line"/>
      <point x="352" y="511" type="line"/>
      <point x="352" y="592" type="line"/>
      <point x="10" y="592" type="line"/>
    </contour>
  </outline>
</glyph>
<glyph name="he-hb" format="2">
  <advance width="456"/>
  <unicode hex="05D4"/>
  <anchor x="231" y="0" name="bottom"/>
  <anchor x="62" y="0" name="bottomleft"/>
  <anchor x="231" y="300" name="center"/>
  <anchor x="231" y="536" name="top"/>
  <anchor x="65" y="536" name="topleft"/>
  <outline>
    <contour>
      <point x="312" y="0" type="line"/>
      <point x="396" y="0" type="line"/>
      <point x="396" y="407" type="line" smooth="yes"/>
      <point x="396" y="525"/>
      <point x="347" y="592"/>
      <point x="246" y="592" type="curve" smooth="yes"/>
      <point x="65" y="592" type="line"/>
      <point x="65" y="511" type="line"/>
      <point x="230" y="511" type="line" smooth="yes"/>
      <point x="281" y="511"/>
      <point x="312" y="473"/>
      <point x="312" y="391" type="curve" smooth="yes"/>
    </contour>
    <contour>
      <point x="65" y="0" type="line"/>
      <point x="149" y="0" type="line"/>
      <point x="149" y="354" type="line"/>
      <point x="65" y="354" type="line"/>
    </contour>
  </outline>
</glyph>
<glyph name="zayin-hb" format="2">
  <advance width="224"/>
  <unicode hex="05D6"/>
  <anchor x="106" y="0" name="bottom"/>
  <anchor x="-48" y="0" name="bottomleft"/>
  <anchor x="-4" y="300" name="center"/>
  <anchor x="137" y="536" name="top"/>
  <anchor x="40" y="536" name="topleft"/>
  <outline>
    <contour>
      <point x="64" y="0" type="line"/>
      <point x="148" y="0" type="line"/>
      <point x="148" y="351" type="line" smooth="yes"/>
      <point x="148" y="454"/>
      <point x="193" y="511"/>
      <point x="214" y="525" type="curve"/>
      <point x="214" y="592" type="line"/>
      <point x="40" y="592" type="line"/>
      <point x="40" y="511" type="line"/>
      <point x="140" y="511" type="line"/>
      <point x="140" y="509" type="line"/>
      <point x="113" y="492"/>
      <point x="64" y="438"/>
      <point x="64" y="340" type="curve" smooth="yes"/>
    </contour>
  </outline>
</glyph>
<glyph name="het-hb" format="2">
  <advance width="466"/>
  <unicode hex="05D7"/>
  <anchor x="236" y="0" name="bottom"/>
  <anchor x="65" y="0" name="bottomleft"/>
  <anchor x="236" y="300" name="center"/>
  <anchor x="236" y="536" name="top"/>
  <anchor x="65" y="536" name="topleft"/>
  <outline>
    <contour>
      <point x="256" y="592" type="curve" smooth="yes"/>
      <point x="65" y="592" type="line"/>
      <point x="65" y="0" type="line"/>
      <point x="149" y="0" type="line"/>
      <point x="149" y="511" type="line"/>
      <point x="240" y="511" type="line" smooth="yes"/>
      <point x="291" y="511"/>
      <point x="322" y="473"/>
      <point x="322" y="391" type="curve" smooth="yes"/>
      <point x="322" y="0" type="line"/>
      <point x="406" y="0" type="line"/>
      <point x="406" y="407" type="line" smooth="yes"/>
      <point x="406" y="525"/>
      <point x="357" y="592"/>
    </contour>
  </outline>
</glyph>
<glyph name="tet-hb" format="2">
  <advance width="471"/>
  <unicode hex="05D8"/>
  <anchor x="236" y="0" name="bottom"/>
  <anchor x="50" y="0" name="bottomleft"/>
  <anchor x="236" y="300" name="center"/>
  <anchor x="236" y="536" name="top"/>
  <anchor x="40" y="536" name="topleft"/>
  <outline>
    <contour>
      <point x="237" y="-12" type="curve" smooth="yes"/>
      <point x="359" y="-12"/>
      <point x="431" y="87"/>
      <point x="431" y="319" type="curve" smooth="yes"/>
      <point x="431" y="533"/>
      <point x="370" y="604"/>
      <point x="267" y="604" type="curve" smooth="yes"/>
      <point x="234" y="604"/>
      <point x="212" y="597"/>
      <point x="200" y="592" type="curve"/>
      <point x="200" y="521" type="line"/>
      <point x="212" y="529"/>
      <point x="242" y="533"/>
      <point x="257" y="533" type="curve" smooth="yes"/>
      <point x="334" y="533"/>
      <point x="348" y="430"/>
      <point x="348" y="319" type="curve" smooth="yes"/>
      <point x="348" y="159"/>
      <point x="319" y="59"/>
      <point x="237" y="59" type="curve" smooth="yes"/>
      <point x="159" y="59"/>
      <point x="124" y="148"/>
      <point x="124" y="293" type="curve" smooth="yes"/>
      <point x="124" y="592" type="line"/>
      <point x="40" y="592" type="line"/>
      <point x="40" y="296" type="line" smooth="yes"/>
      <point x="40" y="173"/>
      <point x="70" y="-12"/>
    </contour>
  </outline>
</glyph>
<glyph name="yod-hb" format="2">
  <advance width="195"/>
  <unicode hex="05D9"/>
  <anchor x="100" y="0" name="bottom"/>
  <anchor x="-31" y="0" name="bottomleft"/>
  <anchor x="-11" y="408" name="center"/>
  <anchor x="100" y="536" name="top"/>
  <anchor x="55" y="536" name="topleft"/>
  <outline>
    <contour>
      <point x="55" y="213" type="line"/>
      <point x="100" y="213" type="line"/>
      <point x="145" y="303" type="line"/>
      <point x="145" y="592" type="line"/>
      <point x="55" y="592" type="line"/>
    </contour>
  </outline>
</glyph>
<glyph name="finalkaf-hb" format="2">
  <advance width="367"/>
  <unicode hex="05DA"/>
  <anchor x="130" y="240" name="bottom"/>
  <anchor x="29" y="0" name="bottomleft"/>
  <anchor x="130" y="300" name="center"/>
  <anchor x="174" y="536" name="top"/>
  <anchor x="19" y="536" name="topleft"/>
  <outline>
    <contour>
      <point x="239" y="-240" type="line"/>
      <point x="327" y="-240" type="line"/>
      <point x="327" y="297" type="line" smooth="yes"/>
      <point x="327" y="491"/>
      <point x="255" y="592"/>
      <point x="134" y="592" type="curve" smooth="yes"/>
      <point x="20" y="592" type="line"/>
      <point x="20" y="511" type="line"/>
      <point x="126" y="511" type="line" smooth="yes"/>
      <point x="197" y="511"/>
      <point x="239" y="443"/>
      <point x="239" y="297" type="curve" smooth="yes"/>
    </contour>
  </outline>
</glyph>
<glyph name="kaf-hb" format="2">
  <advance width="367"/>
  <unicode hex="05DB"/>
  <anchor x="167" y="0" name="bottom"/>
  <anchor x="30" y="0" name="bottomleft"/>
  <anchor x="130" y="300" name="center"/>
  <anchor x="139" y="536" name="top"/>
  <anchor x="20" y="536" name="topleft"/>
  <outline>
    <contour>
      <point x="20" y="0" type="line"/>
      <point x="134" y="0" type="line" smooth="yes"/>
      <point x="267" y="0"/>
      <point x="327" y="119"/>
      <point x="327" y="297" type="curve" smooth="yes"/>
      <point x="327" y="491"/>
      <point x="255" y="592"/>
      <point x="134" y="592" type="curve" smooth="yes"/>
      <point x="20" y="592" type="line"/>
      <point x="20" y="511" type="line"/>
      <point x="126" y="511" type="line" smooth="yes"/>
      <point x="197" y="511"/>
      <point x="240" y="443"/>
      <point x="240" y="297" type="curve" smooth="yes"/>
      <point x="240" y="149"/>
      <point x="195" y="81"/>
      <point x="124" y="81" type="curve" smooth="yes"/>
      <point x="20" y="81" type="line"/>
    </contour>
  </outline>
</glyph>
<glyph name="lamed-hb" format="2">
  <advance width="351"/>
  <unicode hex="05DC"/>
  <anchor x="151" y="0" name="bottom"/>
  <anchor x="132" y="0" name="bottomleft"/>
  <anchor x="80" y="300" name="center"/>
  <anchor x="213" y="536" name="top"/>
  <anchor x="-38" y="536" name="topleft"/>
  <outline>
    <contour>
      <point x="94" y="592" type="line"/>
      <point x="94" y="760" type="line"/>
      <point x="10" y="760" type="line"/>
      <point x="10" y="511" type="line"/>
      <point x="248" y="511" type="line"/>
      <point x="109" y="0" type="line"/>
      <point x="193" y="0" type="line"/>
      <point x="331" y="525" type="line"/>
      <point x="331" y="592" type="line"/>
    </contour>
  </outline>
</glyph>
<glyph name="finalmem-hb" format="2">
  <advance width="451"/>
  <unicode hex="05DD"/>
  <anchor x="221" y="0" name="bottom"/>
  <anchor x="72" y="0" name="bottomleft"/>
  <anchor x="221" y="296" name="center"/>
  <anchor x="221" y="536" name="top"/>
  <anchor x="50" y="536" name="topleft"/>
  <outline>
    <contour>
      <point x="50" y="0" type="line"/>
      <point x="391" y="0" type="line"/>
      <point x="391" y="407" type="line" smooth="yes"/>
      <point x="391" y="525"/>
      <point x="342" y="592"/>
      <point x="241" y="592" type="curve" smooth="yes"/>
      <point x="50" y="592" type="line"/>
    </contour>
    <contour>
      <point x="134" y="81" type="line"/>
      <point x="134" y="511" type="line"/>
      <point x="225" y="511" type="line" smooth="yes"/>
      <point x="276" y="511"/>
      <point x="307" y="473"/>
      <point x="307" y="391" type="curve" smooth="yes"/>
      <point x="307" y="81" type="line"/>
    </contour>
  </outline>
</glyph>
<glyph name="mem-hb" format="2">
  <advance width="477"/>
  <unicode hex="05DE"/>
  <anchor x="240" y="0" name="bottom"/>
  <anchor x="75" y="0" name="bottomleft"/>
  <anchor x="240" y="300" name="center"/>
  <anchor x="261" y="536" name="top"/>
  <anchor x="30" y="536" name="topleft"/>
  <outline>
    <contour>
      <point x="281" y="604" type="curve" smooth="yes"/>
      <point x="217" y="604"/>
      <point x="169" y="570"/>
      <point x="148" y="506" type="curve"/>
      <point x="144" y="506" type="line"/>
      <point x="129" y="592" type="line"/>
      <point x="45" y="592" type="line"/>
      <point x="87" y="425" type="line"/>
      <point x="50" y="0" type="line"/>
      <point x="134" y="0" type="line"/>
      <point x="162" y="326" type="line" smooth="yes"/>
      <point x="174" y="465"/>
      <point x="207" y="527"/>
      <point x="263" y="527" type="curve" smooth="yes"/>
      <point x="316" y="527"/>
      <point x="333" y="472"/>
      <point x="333" y="386" type="curve" smooth="yes"/>
      <point x="333" y="81" type="line"/>
      <point x="233" y="81" type="line"/>
      <point x="233" y="0" type="line"/>
      <point x="417" y="0" type="line"/>
      <point x="417" y="400" type="line" smooth="yes"/>
      <point x="417" y="515"/>
      <point x="384" y="604"/>
    </contour>
  </outline>
</glyph>
<glyph name="finalnun-hb" format="2">
  <advance width="218"/>
  <unicode hex="05DF"/>
  <anchor x="7" y="0" name="bottomleft"/>
  <anchor x="26" y="300" name="center"/>
  <anchor x="84" y="536" name="top"/>
  <anchor x="12" y="536" name="topleft"/>
  <outline>
    <contour>
      <point x="74" y="-240" type="line"/>
      <point x="158" y="-240" type="line"/>
      <point x="158" y="449" type="line" smooth="yes"/>
      <point x="158" y="545"/>
      <point x="126" y="592"/>
      <point x="55" y="592" type="curve" smooth="yes"/>
      <point x="10" y="592" type="line"/>
      <point x="10" y="511" type="line"/>
      <point x="25" y="511" type="line" smooth="yes"/>
      <point x="64" y="511"/>
      <point x="74" y="484"/>
      <point x="74" y="430" type="curve" smooth="yes"/>
    </contour>
  </outline>
</glyph>
<glyph name="nun-hb" format="2">
  <advance width="288"/>
  <unicode hex="05E0"/>
  <anchor x="129" y="0" name="bottom"/>
  <anchor x="11" y="0" name="bottomleft"/>
  <anchor x="87" y="300" name="center"/>
  <anchor x="149" y="536" name="top"/>
  <anchor x="70" y="536" name="topleft"/>
  <outline>
    <contour>
      <point x="30" y="0" type="line"/>
      <point x="228" y="0" type="line"/>
      <point x="228" y="449" type="line" smooth="yes"/>
      <point x="228" y="545"/>
      <point x="196" y="592"/>
      <point x="125" y="592" type="curve" smooth="yes"/>
      <point x="70" y="592" type="line"/>
      <point x="70" y="511" type="line"/>
      <point x="95" y="511" type="line" smooth="yes"/>
      <point x="134" y="511"/>
      <point x="144" y="484"/>
      <point x="144" y="430" type="curve" smooth="yes"/>
      <point x="144" y="81" type="line"/>
      <point x="30" y="81" type="line"/>
    </contour>
  </outline>
</glyph>
<glyph name="samekh-hb" format="2">
  <advance width="483"/>
  <unicode hex="05E1"/>
  <anchor x="248" y="0" name="bottom"/>
  <anchor x="68" y="0" name="bottomleft"/>
  <anchor x="248" y="300" name="center"/>
  <anchor x="248" y="536" name="top"/>
  <anchor x="24" y="536" name="topleft"/>
  <outline>
    <contour>
      <point x="247" y="-12" type="curve" smooth="yes"/>
      <point x="382" y="-12"/>
      <point x="443" y="109"/>
      <point x="443" y="291" type="curve" smooth="yes"/>
      <point x="443" y="489"/>
      <point x="372" y="592"/>
      <point x="249" y="592" type="curve"/>
      <point x="25" y="592" type="line"/>
      <point x="25" y="511" type="line"/>
      <point x="83" y="511" type="line"/>
      <point x="68" y="449"/>
      <point x="52" y="368"/>
      <point x="52" y="291" type="curve" smooth="yes"/>
      <point x="52" y="108"/>
      <point x="118" y="-12"/>
    </contour>
    <contour>
      <point x="249" y="59" type="curve" smooth="yes"/>
      <point x="175" y="59"/>
      <point x="135" y="142"/>
      <point x="135" y="291" type="curve" smooth="yes"/>
      <point x="135" y="353"/>
      <point x="144" y="430"/>
      <point x="163" y="511" type="curve"/>
      <point x="249" y="511" type="line" smooth="yes"/>
      <point x="321" y="511"/>
      <point x="360" y="440"/>
      <point x="360" y="291" type="curve" smooth="yes"/>
      <point x="360" y="140"/>
      <point x="321" y="59"/>
    </contour>
  </outline>
</glyph>
<glyph name="ayin-hb" format="2">
  <advance width="427"/>
  <unicode hex="05E2"/>
  <anchor x="205" y="0" name="bottom"/>
  <anchor x="20" y="0" name="bottomleft"/>
  <anchor x="241" y="406" name="center"/>
  <anchor x="231" y="536" name="top"/>
  <anchor x="54" y="536" name="topleft"/>
  <outline>
    <contour>
      <point x="20" y="0" type="line"/>
      <point x="135" y="0" type="line" smooth="yes"/>
      <point x="363" y="0"/>
      <point x="373" y="219"/>
      <point x="385" y="354" type="curve" smooth="yes"/>
      <point x="407" y="592" type="line"/>
      <point x="323" y="592" type="line"/>
      <point x="301" y="354" type="line" smooth="yes"/>
      <point x="282" y="152"/>
      <point x="264" y="81"/>
      <point x="108" y="81" type="curve" smooth="yes"/>
      <point x="20" y="81" type="line"/>
    </contour>
    <contour>
      <point x="136" y="67" type="line"/>
      <point x="218" y="67" type="line"/>
      <point x="138" y="592" type="line"/>
      <point x="54" y="592" type="line"/>
    </contour>
  </outline>
</glyph>
<glyph name="finalpe-hb" format="2">
  <advance width="431"/>
  <unicode hex="05E3"/>
  <anchor x="40" y="0" name="bottomleft"/>
  <anchor x="257" y="279" name="center"/>
  <anchor x="216" y="536" name="top"/>
  <anchor x="40" y="536" name="topleft"/>
  <outline>
    <contour>
      <point x="307" y="-242" type="line"/>
      <point x="391" y="-242" type="line"/>
      <point x="391" y="297" type="line" smooth="yes"/>
      <point x="391" y="491"/>
      <point x="319" y="592"/>
      <point x="198" y="592" type="curve" smooth="yes"/>
      <point x="84" y="592" type="line"/>
      <point x="84" y="511" type="line"/>
      <point x="190" y="511" type="line" smooth="yes"/>
      <point x="261" y="511"/>
      <point x="307" y="442"/>
      <point x="307" y="296" type="curve" smooth="yes"/>
    </contour>
    <contour>
      <point x="176" y="235" type="curve" smooth="yes"/>
      <point x="187" y="235"/>
      <point x="195" y="236"/>
      <point x="207" y="238" type="curve"/>
      <point x="207" y="319" type="line"/>
      <point x="201" y="318"/>
      <point x="196" y="317"/>
      <point x="188" y="317" type="curve" smooth="yes"/>
      <point x="138" y="317"/>
      <point x="124" y="358"/>
      <point x="124" y="433" type="curve" smooth="yes"/>
      <point x="124" y="592" type="line"/>
      <point x="40" y="592" type="line"/>
      <point x="40" y="425" type="line" smooth="yes"/>
      <point x="40" y="301"/>
      <point x="87" y="235"/>
    </contour>
  </outline>
</glyph>
<glyph name="pe-hb" format="2">
  <advance width="431"/>
  <unicode hex="05E4"/>
  <anchor x="210" y="0" name="bottom"/>
  <anchor x="60" y="0" name="bottomleft"/>
  <anchor x="256" y="279" name="center"/>
  <anchor x="198" y="536" name="top"/>
  <anchor x="40" y="536" name="topleft"/>
  <outline>
    <contour>
      <point x="60" y="0" type="line"/>
      <point x="198" y="0" type="line" smooth="yes"/>
      <point x="331" y="0"/>
      <point x="391" y="119"/>
      <point x="391" y="297" type="curve" smooth="yes"/>
      <point x="391" y="491"/>
      <point x="319" y="592"/>
      <point x="198" y="592" type="curve" smooth="yes"/>
      <point x="84" y="592" type="line"/>
      <point x="84" y="511" type="line"/>
      <point x="190" y="511" type="line" smooth="yes"/>
      <point x="261" y="511"/>
      <point x="304" y="443"/>
      <point x="304" y="297" type="curve" smooth="yes"/>
      <point x="304" y="149"/>
      <point x="259" y="81"/>
      <point x="188" y="81" type="curve" smooth="yes"/>
      <point x="60" y="81" type="line"/>
    </contour>
    <contour>
      <point x="176" y="235" type="curve" smooth="yes"/>
      <point x="187" y="235"/>
      <point x="195" y="236"/>
      <point x="207" y="238" type="curve"/>
      <point x="207" y="319" type="line"/>
      <point x="201" y="318"/>
      <point x="196" y="317"/>
      <point x="188" y="317" type="curve" smooth="yes"/>
      <point x="138" y="317"/>
      <point x="124" y="358"/>
      <point x="124" y="433" type="curve" smooth="yes"/>
      <point x="124" y="592" type="line"/>
      <point x="40" y="592" type="line"/>
      <point x="40" y="425" type="line" smooth="yes"/>
      <point x="40" y="301"/>
      <point x="87" y="235"/>
    </contour>
  </outline>
</glyph>
<glyph name="finaltsadi-hb" format="2">
  <advance width="342"/>
  <unicode hex="05E5"/>
  <anchor x="10" y="0" name="bottomleft"/>
  <anchor x="178" y="438" name="center"/>
  <anchor x="171" y="536" name="top"/>
  <anchor x="10" y="536" name="topleft"/>
  <outline>
    <contour>
      <point x="75" y="-240" type="line"/>
      <point x="159" y="-240" type="line"/>
      <point x="159" y="238" type="line"/>
      <point x="99" y="592" type="line"/>
      <point x="10" y="592" type="line"/>
      <point x="72" y="221" type="line"/>
    </contour>
    <contour>
      <point x="84" y="157" type="line"/>
      <point x="145" y="175" type="line" smooth="yes"/>
      <point x="285" y="216"/>
      <point x="298" y="289"/>
      <point x="309" y="402" type="curve" smooth="yes"/>
      <point x="327" y="592" type="line"/>
      <point x="243" y="592" type="line"/>
      <point x="223" y="384" type="line" smooth="yes"/>
      <point x="216" y="308"/>
      <point x="197" y="272"/>
      <point x="134" y="253" type="curve" smooth="yes"/>
      <point x="84" y="238" type="line"/>
    </contour>
  </outline>
</glyph>
<glyph name="tsadi-hb" format="2">
  <advance width="379"/>
  <unicode hex="05E6"/>
  <anchor x="175" y="0" name="bottom"/>
  <anchor x="41" y="0" name="bottomleft"/>
  <anchor x="85" y="243" name="center"/>
  <anchor x="196" y="536" name="top"/>
  <anchor x="44" y="536" name="topleft"/>
  <outline>
    <contour>
      <point x="261" y="11" type="line"/>
      <point x="320" y="65" type="line"/>
      <point x="243" y="275" type="line"/>
      <point x="126" y="592" type="line"/>
      <point x="42" y="592" type="line"/>
    </contour>
    <contour>
      <point x="30" y="0" type="line"/>
      <point x="320" y="0" type="line"/>
      <point x="320" y="65" type="line"/>
      <point x="300" y="81" type="line"/>
      <point x="30" y="81" type="line"/>
    </contour>
    <contour>
      <point x="197" y="206" type="line"/>
      <point x="298" y="242"/>
      <point x="349" y="330"/>
      <point x="349" y="466" type="curve" smooth="yes"/>
      <point x="349" y="592" type="line"/>
      <point x="265" y="592" type="line"/>
      <point x="265" y="460" type="line" smooth="yes"/>
      <point x="265" y="357"/>
      <point x="234" y="295"/>
      <point x="168" y="270" type="curve"/>
    </contour>
  </outline>
</glyph>
<glyph name="qof-hb" format="2">
  <advance width="426"/>
  <unicode hex="05E7"/>
  <anchor x="288" y="0" name="bottom"/>
  <anchor x="22" y="0" name="bottomleft"/>
  <anchor x="207" y="300" name="center"/>
  <anchor x="236" y="536" name="top"/>
  <anchor x="65" y="536" name="topleft"/>
  <outline>
    <contour>
      <point x="204" y="0" type="line"/>
      <point x="288" y="0" type="line"/>
      <point x="406" y="525" type="line"/>
      <point x="406" y="592" type="line"/>
      <point x="65" y="592" type="line"/>
      <point x="65" y="511" type="line"/>
      <point x="323" y="511" type="line"/>
    </contour>
    <contour>
      <point x="65" y="-241" type="line"/>
      <point x="149" y="-241" type="line"/>
      <point x="149" y="362" type="line"/>
      <point x="65" y="362" type="line"/>
    </contour>
  </outline>
</glyph>
<glyph name="resh-hb" format="2">
  <advance width="361"/>
  <unicode hex="05E8"/>
  <anchor x="259" y="0" name="bottom"/>
  <anchor x="85" y="0" name="bottomleft"/>
  <anchor x="114" y="300" name="center"/>
  <anchor x="136" y="536" name="top"/>
  <anchor x="9" y="536" name="topleft"/>
  <outline>
    <contour>
      <point x="217" y="0" type="line"/>
      <point x="301" y="0" type="line"/>
      <point x="301" y="407" type="line" smooth="yes"/>
      <point x="301" y="525"/>
      <point x="252" y="592"/>
      <point x="151" y="592" type="curve" smooth="yes"/>
      <point x="10" y="592" type="line"/>
      <point x="10" y="511" type="line"/>
      <point x="135" y="511" type="line" smooth="yes"/>
      <point x="186" y="511"/>
      <point x="217" y="473"/>
      <point x="217" y="391" type="curve" smooth="yes"/>
    </contour>
  </outline>
</glyph>
<glyph name="shin-hb" format="2">
  <advance width="488"/>
  <unicode hex="05E9"/>
  <anchor x="220" y="0" name="bottom"/>
  <anchor x="72" y="0" name="bottomleft"/>
  <anchor x="255" y="193" name="center"/>
  <anchor x="255" y="536" name="top"/>
  <anchor x="62" y="536" name="topleft"/>
  <anchor x="431" y="536" name="topright"/>
  <outline>
    <contour>
      <point x="72" y="0" type="line"/>
      <point x="201" y="0" type="line" smooth="yes"/>
      <point x="429" y="0"/>
      <point x="439" y="219"/>
      <point x="451" y="354" type="curve" smooth="yes"/>
      <point x="473" y="592" type="line"/>
      <point x="389" y="592" type="line"/>
      <point x="367" y="354" type="line" smooth="yes"/>
      <point x="348" y="152"/>
      <point x="330" y="81"/>
      <point x="174" y="81" type="curve" smooth="yes"/>
      <point x="149" y="81" type="line"/>
      <point x="104" y="592" type="line"/>
      <point x="20" y="592" type="line"/>
    </contour>
    <contour>
      <point x="78" y="206" type="line"/>
      <point x="184" y="252" type="line" smooth="yes"/>
      <point x="264" y="287"/>
      <point x="273" y="341"/>
      <point x="283" y="444" type="curve" smooth="yes"/>
      <point x="297" y="592" type="line"/>
      <point x="213" y="592" type="line"/>
      <point x="200" y="453" type="line" smooth="yes"/>
      <point x="191" y="359"/>
      <point x="187" y="347"/>
      <point x="140" y="325" type="curve" smooth="yes"/>
      <point x="70" y="293" type="line"/>
    </contour>
  </outline>
</glyph>
<glyph name="tav-hb" format="2">
  <advance width="506"/>
  <unicode hex="05EA"/>
  <anchor x="278" y="0" name="bottom"/>
  <anchor x="36" y="0" name="bottomleft"/>
  <anchor x="278" y="300" name="center"/>
  <anchor x="278" y="536" name="top"/>
  <anchor x="40" y="536" name="topleft"/>
  <outline>
    <contour>
      <point x="362" y="0" type="line"/>
      <point x="446" y="0" type="line"/>
      <point x="446" y="407" type="line" smooth="yes"/>
      <point x="446" y="525"/>
      <point x="397" y="592"/>
      <point x="296" y="592" type="curve" smooth="yes"/>
      <point x="40" y="592" type="line"/>
      <point x="40" y="511" type="line"/>
      <point x="280" y="511" type="line" smooth="yes"/>
      <point x="331" y="511"/>
      <point x="362" y="473"/>
      <point x="362" y="391" type="curve" smooth="yes"/>
    </contour>
    <contour>
      <point x="40" y="0" type="line"/>
      <point x="91" y="0" type="line" smooth="yes"/>
      <point x="162" y="0"/>
      <point x="194" y="47"/>
      <point x="194" y="143" type="curve" smooth="yes"/>
      <point x="194" y="558" type="line"/>
      <point x="110" y="558" type="line"/>
      <point x="110" y="162" type="line" smooth="yes"/>
      <point x="110" y="108"/>
      <point x="100" y="81"/>
      <point x="61" y="81" type="curve" smooth="yes"/>
      <point x="40" y="81" type="line"/>
    </contour>
  </outline>
</glyph>
<glyph name="gershayim-hb" format="2">
  <advance width="354"/>
  <unicode hex="05F4"/>
  <outline>
    <contour>
      <point x="191" y="346" type="curve"/>
      <point x="253" y="346" type="line"/>
      <point x="285" y="421"/>
      <point x="310" y="498"/>
      <point x="329" y="581" type="curve"/>
      <point x="322" y="592" type="line"/>
      <point x="237" y="592" type="line"/>
      <point x="229" y="516"/>
      <point x="214" y="433"/>
    </contour>
    <contour>
      <point x="25" y="346" type="curve"/>
      <point x="87" y="346" type="line"/>
      <point x="119" y="421"/>
      <point x="144" y="498"/>
      <point x="163" y="581" type="curve"/>
      <point x="156" y="592" type="line"/>
      <point x="70" y="592" type="line"/>
      <point x="64" y="523"/>
      <point x="46" y="426"/>
    </contour>
  </outline>
</glyph>
<glyph name="sheqel" format="2">
  <advance width="595"/>
  <unicode hex="20AA"/>
  <note>
sheqel
</note>
  <outline>
    <contour>
      <point x="194" y="0" type="line"/>
      <point x="385" y="0" type="line" smooth="yes"/>
      <point x="486" y="0"/>
      <point x="535" y="67"/>
      <point x="535" y="185" type="curve" smooth="yes"/>
      <point x="535" y="592" type="line"/>
      <point x="451" y="592" type="line"/>
      <point x="451" y="201" type="line" smooth="yes"/>
      <point x="451" y="119"/>
      <point x="420" y="81"/>
      <point x="369" y="81" type="curve" smooth="yes"/>
      <point x="278" y="81" type="line"/>
      <point x="278" y="418" type="line"/>
      <point x="194" y="418" type="line"/>
    </contour>
    <contour>
      <point x="65" y="0" type="line"/>
      <point x="149" y="0" type="line"/>
      <point x="149" y="511" type="line"/>
      <point x="240" y="511" type="line" smooth="yes"/>
      <point x="291" y="511"/>
      <point x="322" y="473"/>
      <point x="322" y="391" type="curve" smooth="yes"/>
      <point x="322" y="184" type="line"/>
      <point x="406" y="184" type="line"/>
      <point x="406" y="407" type="line" smooth="yes"/>
      <point x="406" y="525"/>
      <point x="357" y="592"/>
      <point x="256" y="592" type="curve" smooth="yes"/>
      <point x="65" y="592" type="line"/>
    </contour>
  </outline>
</glyph>
<glyph name="judeospanishvarika-hb" format="2">
  <unicode hex="FB1E"/>
  <note>
uniFB1E
</note>
  <anchor x="147" y="536" name="_top"/>
  <outline>
    <contour>
      <point x="245" y="759" type="curve"/>
      <point x="198" y="759" type="line"/>
      <point x="198" y="726"/>
      <point x="179" y="707"/>
      <point x="147" y="707" type="curve" smooth="yes"/>
      <point x="115" y="707"/>
      <point x="96" y="729"/>
      <point x="96" y="759" type="curve"/>
      <point x="50" y="759" type="line"/>
      <point x="50" y="699"/>
      <point x="86" y="658"/>
      <point x="147" y="658" type="curve" smooth="yes"/>
      <point x="209" y="658"/>
      <point x="245" y="699"/>
    </contour>
  </outline>
</glyph>
<glyph name="ayinaltone-hb" format="2">
  <advance width="422"/>
  <unicode hex="FB20"/>
  <note>
alternativeayin
</note>
  <anchor x="218" y="0" name="bottom"/>
  <anchor x="19" y="0" name="bottomleft"/>
  <anchor x="226" y="536" name="top"/>
  <anchor x="49" y="536" name="topleft"/>
  <outline>
    <contour>
      <point x="20" y="-41" type="line"/>
      <point x="130" y="-4" type="line" smooth="yes"/>
      <point x="354" y="71"/>
      <point x="368" y="217"/>
      <point x="380" y="350" type="curve" smooth="yes"/>
      <point x="402" y="592" type="line"/>
      <point x="318" y="592" type="line"/>
      <point x="296" y="350" type="line" smooth="yes"/>
      <point x="279" y="166"/>
      <point x="256" y="129"/>
      <point x="113" y="75" type="curve" smooth="yes"/>
      <point x="20" y="40" type="line"/>
    </contour>
    <contour>
      <point x="141" y="63" type="line"/>
      <point x="223" y="63" type="line"/>
      <point x="133" y="592" type="line"/>
      <point x="49" y="592" type="line"/>
    </contour>
  </outline>
</glyph>
<glyph name="widealef-hb" format="2">
  <advance width="558"/>
  <unicode hex="FB21"/>
  <note>
alefwide
</note>
  <outline>
    <contour>
      <point x="428" y="0" type="line"/>
      <point x="528" y="0" type="line"/>
      <point x="371" y="233" type="line"/>
      <point x="130" y="592" type="line"/>
      <point x="30" y="592" type="line"/>
      <point x="171" y="383" type="line"/>
    </contour>
    <contour>
      <point x="35" y="0" type="line"/>
      <point x="119" y="0" type="line"/>
      <point x="119" y="164" type="line" smooth="yes"/>
      <point x="119" y="269"/>
      <point x="151" y="331"/>
      <point x="219" y="356" type="curve"/>
      <point x="193" y="421" type="line"/>
      <point x="88" y="386"/>
      <point x="35" y="297"/>
      <point x="35" y="158" type="curve" smooth="yes"/>
    </contour>
    <contour>
      <point x="363" y="186" type="line"/>
      <point x="464" y="222"/>
      <point x="515" y="310"/>
      <point x="515" y="446" type="curve" smooth="yes"/>
      <point x="515" y="592" type="line"/>
      <point x="431" y="592" type="line"/>
      <point x="431" y="440" type="line" smooth="yes"/>
      <point x="431" y="337"/>
      <point x="400" y="275"/>
      <point x="334" y="250" type="curve"/>
    </contour>
  </outline>
</glyph>
<glyph name="widedalet-hb" format="2">
  <advance width="502"/>
  <unicode hex="FB22"/>
  <note>
daletwide
</note>
  <outline>
    <contour>
      <point x="317" y="0" type="line"/>
      <point x="401" y="0" type="line"/>
      <point x="401" y="544" type="line"/>
      <point x="317" y="544" type="line"/>
    </contour>
    <contour>
      <point x="10" y="511" type="line"/>
      <point x="492" y="511" type="line"/>
      <point x="492" y="592" type="line"/>
      <point x="10" y="592" type="line"/>
    </contour>
  </outline>
</glyph>
<glyph name="widehe-hb" format="2">
  <advance width="606"/>
  <unicode hex="FB23"/>
  <note>
hewide
</note>
  <outline>
    <contour>
      <point x="462" y="0" type="line"/>
      <point x="546" y="0" type="line"/>
      <point x="546" y="404" type="line" smooth="yes"/>
      <point x="546" y="534"/>
      <point x="484" y="592"/>
      <point x="348" y="592" type="curve" smooth="yes"/>
      <point x="65" y="592" type="line"/>
      <point x="65" y="511" type="line"/>
      <point x="342" y="511" type="line" smooth="yes"/>
      <point x="424" y="511"/>
      <point x="462" y="472"/>
      <point x="462" y="386" type="curve" smooth="yes"/>
    </contour>
    <contour>
      <point x="65" y="354" type="line"/>
      <point x="65" y="0" type="line"/>
      <point x="149" y="0" type="line"/>
      <point x="149" y="354" type="line"/>
    </contour>
  </outline>
</glyph>
<glyph name="widekaf-hb" format="2">
  <advance width="514"/>
  <unicode hex="FB24"/>
  <note>
kafwide
</note>
  <outline>
    <contour>
      <point x="20" y="0" type="line"/>
      <point x="209" y="0" type="line" smooth="yes"/>
      <point x="382" y="0"/>
      <point x="474" y="130"/>
      <point x="474" y="299" type="curve" smooth="yes"/>
      <point x="474" y="472"/>
      <point x="377" y="592"/>
      <point x="194" y="592" type="curve" smooth="yes"/>
      <point x="20" y="592" type="line"/>
      <point x="20" y="511" type="line"/>
      <point x="184" y="511" type="line" smooth="yes"/>
      <point x="317" y="511"/>
      <point x="387" y="437"/>
      <point x="387" y="296" type="curve" smooth="yes"/>
      <point x="387" y="160"/>
      <point x="323" y="81"/>
      <point x="209" y="81" type="curve" smooth="yes"/>
      <point x="20" y="81" type="line"/>
    </contour>
  </outline>
</glyph>
<glyph name="widelamed-hb" format="2">
  <advance width="484"/>
  <unicode hex="FB25"/>
  <note>
lamedwide
</note>
  <outline>
    <contour>
      <point x="188" y="0" type="line"/>
      <point x="277" y="0" type="line"/>
      <point x="464" y="525" type="line"/>
      <point x="464" y="592" type="line"/>
      <point x="94" y="592" type="line"/>
      <point x="94" y="760" type="line"/>
      <point x="10" y="760" type="line"/>
      <point x="10" y="511" type="line"/>
      <point x="376" y="511" type="line"/>
    </contour>
  </outline>
</glyph>
<glyph name="finalwidemem-hb" format="2">
  <advance width="606"/>
  <unicode hex="FB26"/>
  <note>
finalmemwide
</note>
  <outline>
    <contour>
      <point x="50" y="0" type="line"/>
      <point x="546" y="0" type="line"/>
      <point x="546" y="404" type="line" smooth="yes"/>
      <point x="546" y="534"/>
      <point x="484" y="592"/>
      <point x="348" y="592" type="curve" smooth="yes"/>
      <point x="50" y="592" type="line"/>
    </contour>
    <contour>
      <point x="134" y="81" type="line"/>
      <point x="134" y="511" type="line"/>
      <point x="342" y="511" type="line" smooth="yes"/>
      <point x="424" y="511"/>
      <point x="462" y="472"/>
      <point x="462" y="386" type="curve" smooth="yes"/>
      <point x="462" y="81" type="line"/>
    </contour>
  </outline>
</glyph>
<glyph name="wideresh-hb" format="2">
  <advance width="511"/>
  <unicode hex="FB27"/>
  <note>
reshwide
</note>
  <outline>
    <contour>
      <point x="367" y="0" type="line"/>
      <point x="451" y="0" type="line"/>
      <point x="451" y="404" type="line" smooth="yes"/>
      <point x="451" y="534"/>
      <point x="389" y="592"/>
      <point x="253" y="592" type="curve" smooth="yes"/>
      <point x="10" y="592" type="line"/>
      <point x="10" y="511" type="line"/>
      <point x="247" y="511" type="line" smooth="yes"/>
      <point x="329" y="511"/>
      <point x="367" y="472"/>
      <point x="367" y="386" type="curve" smooth="yes"/>
    </contour>
  </outline>
</glyph>
<glyph name="widetav-hb" format="2">
  <advance width="646"/>
  <unicode hex="FB28"/>
  <note>
tavwide
</note>
  <outline>
    <contour>
      <point x="502" y="0" type="line"/>
      <point x="586" y="0" type="line"/>
      <point x="586" y="404" type="line" smooth="yes"/>
      <point x="586" y="534"/>
      <point x="524" y="592"/>
      <point x="388" y="592" type="curve" smooth="yes"/>
      <point x="44" y="592" type="line"/>
      <point x="44" y="511" type="line"/>
      <point x="382" y="511" type="line" smooth="yes"/>
      <point x="464" y="511"/>
      <point x="502" y="472"/>
      <point x="502" y="386" type="curve" smooth="yes"/>
    </contour>
    <contour>
      <point x="40" y="0" type="line"/>
      <point x="78" y="0" type="line" smooth="yes"/>
      <point x="180" y="0"/>
      <point x="225" y="56"/>
      <point x="225" y="179" type="curve" smooth="yes"/>
      <point x="225" y="548" type="line"/>
      <point x="141" y="548" type="line"/>
      <point x="141" y="174" type="line" smooth="yes"/>
      <point x="141" y="112"/>
      <point x="122" y="81"/>
      <point x="83" y="81" type="curve" smooth="yes"/>
      <point x="40" y="81" type="line"/>
    </contour>
  </outline>
</glyph>
<glyph name="alternativeplus-hb" format="2">
  <advance width="490"/>
  <unicode hex="FB29"/>
  <note>
alt_plussign
</note>
  <outline>
    <contour>
      <point x="281" y="388" type="line"/>
      <point x="281" y="595" type="line"/>
      <point x="209" y="595" type="line"/>
      <point x="209" y="388" type="line"/>
      <point x="50" y="388" type="line"/>
      <point x="50" y="317" type="line"/>
      <point x="440" y="317" type="line"/>
      <point x="440" y="388" type="line"/>
    </contour>
  </outline>
</glyph>
<glyph name="aleflamed-hb" format="2">
  <advance width="443"/>
  <unicode hex="FB4F"/>
  <note>
aleflamed
</note>
  <anchor x="221" y="0" name="caret_1"/>
  <outline>
    <contour>
      <point x="314" y="0" type="line"/>
      <point x="413" y="0" type="line"/>
      <point x="144" y="592" type="line"/>
      <point x="45" y="592" type="line"/>
    </contour>
    <contour>
      <point x="15" y="511" type="line"/>
      <point x="137" y="511" type="line"/>
      <point x="137" y="592" type="line"/>
      <point x="15" y="592" type="line"/>
    </contour>
    <contour>
      <point x="15" y="546" type="line"/>
      <point x="99" y="546" type="line"/>
      <point x="99" y="760" type="line"/>
      <point x="15" y="760" type="line"/>
    </contour>
    <contour>
      <point x="248" y="186" type="line"/>
      <point x="349" y="222"/>
      <point x="400" y="310"/>
      <point x="400" y="446" type="curve" smooth="yes"/>
      <point x="400" y="592" type="line"/>
      <point x="316" y="592" type="line"/>
      <point x="316" y="440" type="line" smooth="yes"/>
      <point x="316" y="337"/>
      <point x="285" y="275"/>
      <point x="219" y="250" type="curve"/>
    </contour>
  </outline>
</glyph>
<glyph name="hatafpatah_zerowidthjoiner_siluqleft-hb" format="2">
  <anchor x="213" y="0" name="_bottom"/>
  <outline>
    <contour>
      <point x="50" y="-126" type="line"/>
      <point x="215" y="-126" type="line"/>
      <point x="215" y="-83" type="line"/>
      <point x="50" y="-83" type="line"/>
    </contour>
    <contour>
      <point x="243" y="-239" type="line"/>
      <point x="286" y="-239" type="line"/>
      <point x="286" y="-70" type="line"/>
      <point x="243" y="-70" type="line"/>
    </contour>
    <contour>
      <point x="345" y="-239" type="curve" smooth="yes"/>
      <point x="364" y="-239"/>
      <point x="377" y="-227"/>
      <point x="377" y="-203" type="curve" smooth="yes"/>
      <point x="377" y="-180"/>
      <point x="364" y="-169"/>
      <point x="345" y="-169" type="curve" smooth="yes"/>
      <point x="327" y="-169"/>
      <point x="314" y="-180"/>
      <point x="314" y="-203" type="curve" smooth="yes"/>
      <point x="314" y="-228"/>
      <point x="327" y="-239"/>
    </contour>
    <contour>
      <point x="345" y="-139" type="curve" smooth="yes"/>
      <point x="363" y="-139"/>
      <point x="376" y="-128"/>
      <point x="376" y="-104" type="curve" smooth="yes"/>
      <point x="376" y="-81"/>
      <point x="363" y="-70"/>
      <point x="345" y="-70" type="curve" smooth="yes"/>
      <point x="326" y="-70"/>
      <point x="314" y="-81"/>
      <point x="314" y="-104" type="curve" smooth="yes"/>
      <point x="314" y="-129"/>
      <point x="326" y="-139"/>
    </contour>
  </outline>
</glyph>
<glyph name="hatafsegol_zerowidthjoiner_siluqleft-hb" format="2">
  <anchor x="219" y="0" name="_bottom"/>
  <outline>
    <contour>
      <point x="253" y="-239" type="line"/>
      <point x="297" y="-239" type="line"/>
      <point x="297" y="-70" type="line"/>
      <point x="253" y="-70" type="line"/>
    </contour>
    <contour>
      <point x="138" y="-239" type="curve" smooth="yes"/>
      <point x="156" y="-239"/>
      <point x="169" y="-227"/>
      <point x="169" y="-203" type="curve" smooth="yes"/>
      <point x="169" y="-180"/>
      <point x="156" y="-169"/>
      <point x="138" y="-169" type="curve" smooth="yes"/>
      <point x="119" y="-169"/>
      <point x="106" y="-180"/>
      <point x="106" y="-203" type="curve"/>
      <point x="106" y="-228"/>
      <point x="119" y="-239"/>
    </contour>
    <contour>
      <point x="81" y="-139" type="curve" smooth="yes"/>
      <point x="100" y="-139"/>
      <point x="113" y="-128"/>
      <point x="113" y="-104" type="curve" smooth="yes"/>
      <point x="113" y="-81"/>
      <point x="100" y="-70"/>
      <point x="81" y="-70" type="curve" smooth="yes"/>
      <point x="63" y="-70"/>
      <point x="50" y="-81"/>
      <point x="50" y="-104" type="curve"/>
      <point x="50" y="-129"/>
      <point x="63" y="-139"/>
    </contour>
    <contour>
      <point x="194" y="-139" type="curve" smooth="yes"/>
      <point x="213" y="-139"/>
      <point x="225" y="-128"/>
      <point x="225" y="-104" type="curve" smooth="yes"/>
      <point x="225" y="-81"/>
      <point x="213" y="-70"/>
      <point x="194" y="-70" type="curve" smooth="yes"/>
      <point x="175" y="-70"/>
      <point x="163" y="-81"/>
      <point x="163" y="-104" type="curve"/>
      <point x="163" y="-129"/>
      <point x="175" y="-139"/>
    </contour>
    <contour>
      <point x="356" y="-239" type="curve" smooth="yes"/>
      <point x="375" y="-239"/>
      <point x="388" y="-227"/>
      <point x="388" y="-203" type="curve" smooth="yes"/>
      <point x="388" y="-180"/>
      <point x="375" y="-169"/>
      <point x="356" y="-169" type="curve" smooth="yes"/>
      <point x="338" y="-169"/>
      <point x="325" y="-180"/>
      <point x="325" y="-203" type="curve"/>
      <point x="325" y="-228"/>
      <point x="338" y="-239"/>
    </contour>
    <contour>
      <point x="355" y="-139" type="curve" smooth="yes"/>
      <point x="374" y="-139"/>
      <point x="387" y="-128"/>
      <point x="387" y="-104" type="curve" smooth="yes"/>
      <point x="387" y="-81"/>
      <point x="374" y="-70"/>
      <point x="355" y="-70" type="curve" smooth="yes"/>
      <point x="337" y="-70"/>
      <point x="325" y="-81"/>
      <point x="325" y="-104" type="curve"/>
      <point x="325" y="-129"/>
      <point x="337" y="-139"/>
    </contour>
  </outline>
</glyph>
